<!-- icon666.com - MILLIONS vector ICONS FREE --><svg xmlns="http://www.w3.org/2000/svg" viewBox="0 0 100 100"><g id="Layer_50" data-name="Layer 50"><path d="M15.88037,84.10449H84.11963A12.89523,12.89523,0,0,0,97,71.22412V28.77588A12.89523,12.89523,0,0,0,84.11963,15.89551H15.88037A12.89523,12.89523,0,0,0,3,28.77588V71.22412A12.89523,12.89523,0,0,0,15.88037,84.10449Zm68.23926-4H15.88037A8.89064,8.89064,0,0,1,7,71.22412V52H93V71.22412A8.89064,8.89064,0,0,1,84.11963,80.10449ZM7,36.55225H93V48H7Zm8.88037-16.65674H84.11963A8.89064,8.89064,0,0,1,93,28.77588v3.77637H7V28.77588A8.89064,8.89064,0,0,1,15.88037,19.89551Z"></path><path d="M23.39453,64.49316H19.84521a2,2,0,1,0,0,4h3.54932a2,2,0,1,0,0-4Z"></path><path d="M36.23926,64.49316H32.68994a2,2,0,1,0,0,4h3.54932a2,2,0,0,0,0-4Z"></path><path d="M49.08447,64.49316H45.53516a2,2,0,0,0,0,4h3.54931a2,2,0,0,0,0-4Z"></path></g></svg>