<!-- icon666.com - MILLIONS vector ICONS FREE --><svg enable-background="new 0 0 512 512" viewBox="0 0 512 512" xmlns="http://www.w3.org/2000/svg"><g id="Layer_3"><g><g><g><path d="m255.44 512.519h-2.03c-41.393 0-75.069-33.676-75.069-75.068v-195.103c0-4.143 3.358-7.501 7.501-7.501s7.501 3.358 7.501 7.501v195.102c0 33.121 26.946 60.067 60.067 60.067h2.03c33.121 0 60.067-26.946 60.067-60.067v-87.575c0-4.143 3.358-7.501 7.501-7.501s7.501 3.358 7.501 7.501v87.575c-.001 41.393-33.676 75.069-75.069 75.069z"></path></g><g><path d="m323.008 322.373c-4.143 0-7.501-3.358-7.501-7.501v-75.564c0-4.143 3.358-7.501 7.501-7.501s7.501 3.358 7.501 7.501v75.564c-.001 4.142-3.359 7.501-7.501 7.501z"></path></g><g><path d="m129.038 275.995c-20.214.002-40.421-7.421-55.809-22.268-14.994-14.467-23.252-33.723-23.252-54.22 0-20.496 8.257-39.752 23.252-54.219l66.307-63.975c2.98-2.876 7.729-2.791 10.606.19 2.876 2.981 2.791 7.73-.19 10.606l-66.307 63.975c-12.037 11.614-18.666 27.035-18.667 43.423 0 16.388 6.629 31.81 18.667 43.424 12.513 12.074 28.956 18.111 45.392 18.112 16.441.001 32.876-6.036 45.393-18.112l76.361-73.676c2.906-2.804 7.511-2.804 10.416 0l76.361 73.676c25.029 24.15 65.755 24.149 90.785 0 12.038-11.614 18.667-27.036 18.667-43.424s-6.629-31.809-18.666-43.423l-126.962-122.498c-25.029-24.149-65.755-24.149-90.785 0l-35.4 34.156c-2.982 2.876-7.73 2.79-10.606-.19-2.876-2.981-2.791-7.73.19-10.606l35.4-34.156c30.773-29.69 80.844-29.69 111.617 0l126.962 122.498c14.994 14.467 23.252 33.723 23.252 54.219 0 20.497-8.258 39.753-23.252 54.22-30.773 29.69-80.844 29.691-111.618 0l-71.152-68.652-71.153 68.651c-15.385 14.844-35.6 22.267-55.809 22.269z"></path></g><g><path d="m382.962 275.995c-20.211 0-40.422-7.423-55.809-22.268l-9.004-8.688c-1.615-1.558-2.448-3.757-2.269-5.994 2.185-27.413 14.18-53.213 33.773-72.645 19.603-19.442 45.528-31.234 73-33.204 2.117-.15 4.211.605 5.744 2.084l10.373 10.008c14.994 14.467 23.252 33.723 23.252 54.219s-8.258 39.752-23.252 54.219c-15.386 14.846-35.597 22.269-55.808 22.269zm-51.789-39.236 6.396 6.171c25.029 24.15 65.755 24.149 90.785 0 12.038-11.614 18.667-27.035 18.667-43.423s-6.629-31.809-18.666-43.423l-7.913-7.634c-46.384 4.882-83.923 42.037-89.269 88.309z"></path></g><g><path d="m129.038 275.995c-20.214 0-40.421-7.421-55.809-22.268-14.994-14.467-23.252-33.723-23.252-54.219s8.257-39.752 23.252-54.219l10.119-9.763c1.583-1.527 3.755-2.285 5.944-2.067 27.323 2.693 52.873 15.126 71.943 35.009 19.13 19.946 30.474 46.093 31.943 73.626.116 2.172-.717 4.287-2.282 5.798l-6.049 5.836c-15.385 14.843-35.6 22.267-55.809 22.267zm-37.823-127.214-7.569 7.303c-12.037 11.614-18.667 27.036-18.667 43.423s6.63 31.809 18.667 43.423c25.03 24.151 65.756 24.15 90.785 0l3.53-3.405c-4.069-46.407-40.559-84.572-86.746-90.744z"></path></g><g><path d="m255.414 512.522h-1.973c-41.408 0-75.095-33.663-75.095-75.041v-14.53c0-2.194.961-4.278 2.629-5.703 20.882-17.838 47.527-27.663 75.026-27.663 26.3 0 51.081 8.608 71.662 24.895 1.798 1.423 2.846 3.589 2.846 5.882v17.12c0 41.377-33.688 75.04-75.095 75.04zm-62.067-86.038v10.997c0 33.106 26.958 60.039 60.093 60.039h1.973c33.136 0 60.094-26.934 60.094-60.039v-13.411c-17.324-12.76-37.82-19.484-59.507-19.484-22.79.001-44.904 7.753-62.653 21.898z"></path></g></g></g></g></svg>